# AST/ASF file generated using VICON BodyLanguage
# -----------------------------------------------
:version 1.10
:name VICON
:units
  mass 1.0
  length 0.45
  angle deg
:documentation
   .ast/.asf automatically generated from VICON data using
   VICON BodyBuilder and BodyLanguage model FoxedUp or BRILLIANT.MOD
:root
   order TX TY TZ RX RY RZ
   axis XYZ
   position 0 0 0  
   orientation 0 0 0 
:bonedata
  begin
     id 1 
     name lhipjoint
     direction 0.528046 -0.759594 0.379717 
     length 2.39752 
     axis 0 0 0  XYZ
  end
  begin
     id 2 
     name lfemur
     direction 0.34202 -0.939693 0  
     length 7.31175  
     axis 0 0 20  XYZ
    dof rx ry rz
    limits (-160.0 20.0)
           (-70.0 70.0)
           (-60.0 70.0)
  end
  begin
     id 3 
     name ltibia
     direction 0.34202 -0.939693 0   
     length 7.52482   
     axis 0 0 20   XYZ
    dof rx
    limits (-10.0 170.0)
  end
  begin
     id 4 
     name lfoot
     direction 0.0675379 -0.185559 0.980309   
     length 2.00961   
     axis -90 7.62852e-016 20   XYZ
    dof rx rz
    limits (-45.0 90.0)
           (-70.0 20.0)
  end
  begin
     id 5 
     name ltoes
     direction 1.5352e-011 -4.22286e-011 1   
     length 1.01383   
     axis -90 7.62852e-016 20   XYZ
    dof rx
    limits (-90.0 20.0)
  end
  begin
     id 6 
     name rhipjoint
     direction -0.510274 -0.769251 0.384544   
     length 2.36742  
     axis 0 0 0  XYZ 
  end
  begin
     id 7 
     name rfemur
     direction -0.34202 -0.939693 0   
     length 7.45325   
     axis 0 0 -20   XYZ
    dof rx ry rz
    limits (-160.0 20.0)
           (-70.0 70.0)
           (-70.0 60.0)
  end
  begin
     id 8 
     name rtibia
     direction -0.34202 -0.939693 0   
     length 7.49587   
     axis 0 0 -20   XYZ
    dof rx
    limits (-10.0 170.0)
 end
 begin
     id 9 
     name rfoot
     direction -0.106475 -0.292536 0.950308   
     length 2.20898  
     axis -90 -7.62852e-016 -20   XYZ
    dof rx rz
    limits (-45.0 90.0)
           (-20.0 70.0)
  end
  begin
     id 10 
     name rtoes
     direction -1.53597e-011 -4.22023e-011 1   
     length 1.10065   
     axis -90 -7.62852e-016 -20   XYZ
    dof rx
    limits (-90.0 20.0)
  end
  begin
     id 11 
     name lowerback
     direction 0.0260024 0.998026 -0.0571652   
     length 2.11214   
     axis 0 0 0   XYZ
    dof rx ry rz
    limits (-20.0 45.0)
           (-30.0 30.0)
           (-30.0 30.0)
  end
  begin
     id 12 
     name upperback
     direction 0.0216202 0.999542 -0.0211766   
     length 2.11689   
     axis 0 0 0   XYZ
    dof rx ry rz
    limits (-20.0 45.0)
           (-30.0 30.0)
           (-30.0 30.0)
  end
  begin
     id 13 
     name thorax
     direction 0.00883312 0.999944 0.00589057   
     length 2.11821   
     axis 0 0 0   XYZ
    dof rx ry rz
    limits (-20.0 45.0)
           (-30.0 30.0)
           (-30.0 30.0)
  end
  begin
     id 14 
     name lowerneck
     direction -0.059386 0.994433 0.0870401   
     length 1.81176   
     axis 0 0 0   XYZ
    dof rx ry rz
    limits (-20.0 45.0)
           (-30.0 30.0)
           (-30.0 30.0)
  end
  begin
     id 15 
     name upperneck
     direction 0.0506457 0.97328 -0.223967   
     length 1.82382   
     axis 0 0 0   XYZ
    dof rx ry rz
    limits (-20.0 45.0)
           (-30.0 30.0)
           (-30.0 30.0)
  end
  begin
     id 16
     name head
     direction 0.0205902 0.996147 -0.0852487  
     length 1.84805  
     axis 0 0 0   XYZ
    dof rx ry rz
    limits (-20.0 45.0)
           (-30.0 30.0)
           (-30.0 30.0)
  end
  begin
     id 17 
     name lclavicle
     direction 0.949493 0.303881 -0.0782325  
     length 3.60584  
     axis 0 0 0   XYZ
    dof ry rz
    limits (-20.0 10.0)
           (0.0 20.0)
  end
  begin
     id 18 
     name lhumerus
     direction 1 -4.48965e-011 1.48782e-027   
     length 4.95681   
     axis 180 -30 -90   XYZ
    dof rx ry rz
    limits (-60.0 90.0)
           (-90.0 90.0)
           (-90.0 90.0)
  end
  begin
     id 19
     name lradius
     direction 1 -4.48952e-011 2.06528e-027   
     length 3.40915   
     axis 180 -30 -90   XYZ
    dof rx
    limits (-10.0 170.0)
  end
  begin
     id 20
     name lwrist
     direction 1 -4.48964e-011 1.28021e-027   
     length 1.70457   
     axis -1.61767e-015 90 90   XYZ
    dof ry
    limits (-180.0 0.0)
 end
  begin
     id 21 
     name lhand
     direction 1 -4.49094e-011 2.54887e-027   
     length 0.616403   
     axis -1.63363e-015 90 90   XYZ
    dof rx rz
    limits (-90.0 90.0)
           (-45.0 45.0)
  end
  begin
     id 22 
     name lfingers
     direction 1 -4.49002e-011 5.11407e-027   
     length 0.49696   
     axis -3.26723e-015 90 90   XYZ
    dof rx
    limits (0.0 90.0)
  end
  begin
     id 23
     name lthumb
     direction 0.707107 -6.34998e-011 0.707107   
     length 0.713539   
     axis -90 45 -2.25915e-014   XYZ
    dof rx rz
    limits (-45.0 45.0)
           (-45.0 45.0)
  end
  begin
     id 24 
     name rclavicle
     direction -0.937751 0.334612 -0.0930482   
     length 3.46287  
     axis 0 0 0   XYZ 
    dof ry rz
    limits (-10.0 20.0)
           (-20.0 0.0)
  end
  begin
     id 25 
     name rhumerus
     direction -1 -4.48962e-011 3.59972e-027  
     length 5.352   
     axis 180 30 90   XYZ
    dof rx ry rz
    limits (-90.0 60.0)
           (-90.0 90.0)
           (-90.0 90.0)
  end
  begin
     id 26 
     name rradius
     direction -1 -4.48987e-011 -3.76925e-027   
     length 3.43721   
     axis 180 30 90   XYZ
    dof rx
    limits (-10.0 170.0)
  end
  begin
     id 27 
     name rwrist
     direction -1 -4.48943e-011 1.28112e-027   
     length 1.7186   
     axis -1.61767e-015 -90 -90   XYZ
    dof ry
    limits (-180.0 0.0)
  end
  begin
     id 28
     name rhand
     direction -1 -4.49027e-011 2.55483e-027   
     length 0.72009   
     axis -1.63363e-015 -90 -90   XYZ
    dof rx rz
    limits (-90.0 90.0)
           (-45.0 45.0)
  end
  begin
     id 29
     name rfingers
     direction -1 -4.48827e-011 5.14506e-027   
     length 0.580555   
     axis -3.26723e-015 -90 -90   XYZ
    dof rx
    limits (0.0 90.0)
  end
  begin
     id 30
     name rthumb
     direction -0.707107 -6.34936e-011 0.707107   
     length 0.833564   
     axis -90 -45 2.25915e-014   XYZ
    dof rx rz
    limits (-45.0 45.0)
           (-45.0 45.0)
  end
:hierarchy
  begin
    root lhipjoint rhipjoint lowerback
    lhipjoint lfemur
    lfemur ltibia
    ltibia lfoot
    lfoot ltoes
    rhipjoint rfemur
    rfemur rtibia
    rtibia rfoot
    rfoot rtoes
    lowerback upperback
    upperback thorax
    thorax lowerneck lclavicle rclavicle
    lowerneck upperneck
    upperneck head
    lclavicle lhumerus
    lhumerus lradius
    lradius lwrist
    lwrist lhand lthumb
    lhand lfingers
    rclavicle rhumerus
    rhumerus rradius
    rradius rwrist
    rwrist rhand rthumb
    rhand rfingers
  end

#!OML:ASF H:\Terrain\Patient Classification 1\Terrain2\Thursday\justin.ASF
:FULLY-SPECIFIED
:DEGREES
105
root 8.81963 17.1622 -20.4878 2.09738 -0.758658 3.25792
lowerback 4.14141 -1.53909 -5.09212
upperback 2.07887 -2.22481 2.27104
thorax 0.110796 -1.17034 5.29564
lowerneck -16.276 0.0900336 -7.49906
upperneck 31.6804 2.36488 0.337276
head 13.315 0.163094 1.80396
rclavicle 2.27608e-014 -1.27222e-014
rhumerus -33.8962 -12.1084 -76.1089
rradius 26.9223
rwrist -5.60025
rhand -18.8729 9.95123
rfingers 7.12502
rthumb 7.4278 -19.8984
lclavicle 2.27608e-014 -1.27222e-014
lhumerus -29.9382 0.694605 82.3705
lradius 47.2601
lwrist 6.54881
lhand -15.843 23.5052
lfingers 7.12502
lthumb 10.3516 53.2304
rfemur -31.7136 -2.03752 20.3991
rtibia 29.4587
rfoot -7.01064 1.28816
rtoes -1.45287
lfemur 9.31769 3.57376 -24.4089
ltibia 17.1067
lfoot -9.85865 -16.5014
ltoes 8.93329
106
root 8.80049 17.1789 -20.3415 2.08646 -0.646133 3.10403
lowerback 4.10684 -1.56549 -4.87207
upperback 2.02042 -2.25081 2.32243
thorax 0.0658806 -1.17908 5.22511
lowerneck -16.2214 0.128642 -7.3489
upperneck 31.7923 2.45817 0.0856831
head 13.3548 0.183943 1.69491
rclavicle 1.74931e-014 -2.22639e-014
rhumerus -33.9671 -12.2593 -76.033
rradius 26.8421
rwrist -5.55242
rhand -18.9045 10.2872
rfingers 7.12502
rthumb 7.39735 -19.5635
lclavicle 1.74931e-014 -2.22639e-014
lhumerus -30.137 0.974442 82.5247
lradius 46.6436
lwrist 6.29893
lhand -15.6574 23.7767
lfingers 7.12502
lthumb 10.5306 53.4929
rfemur -31.4362 -1.69071 20.4882
rtibia 29.7848
rfoot -5.94613 0.97798
rtoes 2.1715
lfemur 9.44915 3.03213 -24.221
ltibia 17.7337
lfoot -9.04082 -16.3438
ltoes 7.72506
107
root 8.7836 17.1923 -20.1965 2.02621 -0.567594 2.60571
lowerback 4.18822 -1.61547 -4.29347
upperback 1.95711 -2.29879 2.50701
thorax -0.0557344 -1.1949 5.09512
lowerneck -16.3479 0.221448 -7.34656
upperneck 32.0734 2.66176 -0.0443209
head 13.4982 0.243754 1.68044
rclavicle -4.11484e-014 1.11319e-014
rhumerus -33.994 -12.3543 -75.9063
rradius 26.6909
rwrist -5.67052
rhand -18.9005 10.7604
rfingers 7.12502
rthumb 7.40123 -19.0901
lclavicle -4.11484e-014 1.11319e-014
lhumerus -30.4864 1.47277 82.6738
lradius 46.067
lwrist 5.98478
lhand -15.8008 23.1468
lfingers 7.12502
lthumb 10.3923 52.87
rfemur -31.0716 -1.3256 20.954
rtibia 29.9767
rfoot -5.50328 0.520328
rtoes 5.29027
lfemur 9.43205 2.6829 -23.6489
ltibia 18.7361
lfoot -8.59816 -16.1854
ltoes 4.90061
108
root 8.77667 17.2048 -20.0496 1.93952 -0.538681 2.34467
lowerback 4.24916 -1.6365 -3.9087
upperback 1.91024 -2.31339 2.66104
thorax -0.146119 -1.19703 5.04122
lowerneck -16.4488 0.263025 -7.40165
upperneck 32.2892 2.79271 -0.139947
head 13.6111 0.271892 1.67684
rclavicle -7.55382e-015 2.8625e-014
rhumerus -33.9401 -12.5444 -75.6218
rradius 26.3568
rwrist -5.50256
rhand -18.6058 10.6822
rfingers 7.12502
rthumb 7.68566 -19.1581
lclavicle -7.55382e-015 2.8625e-014
lhumerus -30.9528 1.94393 82.9422
lradius 45.572
lwrist 5.7082
lhand -16.4071 22.6802
lfingers 7.12502
lthumb 9.80738 52.4318
rfemur -30.6241 -1.43233 21.294
rtibia 30.0788
rfoot -5.51829 0.593851
rtoes 4.7214
lfemur 9.31399 2.23072 -23.4039
ltibia 20.1042
lfoot -8.10229 -15.9042
ltoes 3.40554
109
root 8.77686 17.2246 -19.901 1.74392 -0.363394 2.06626
lowerback 4.35545 -1.67021 -3.36684
upperback 1.92629 -2.33931 2.73749
thorax -0.205825 -1.20564 4.81795
lowerneck -16.4013 0.230584 -7.36007
upperneck 32.3326 2.75581 -0.217367
head 13.6242 0.24932 1.63323
rclavicle 2.00773e-014 -1.27222e-014
rhumerus -33.8636 -12.9084 -75.419
rradius 26.0226
rwrist -5.29854
rhand -18.7806 10.2967
rfingers 7.12502
rthumb 7.5169 -19.5497
lclavicle 2.00773e-014 -1.27222e-014
lhumerus -31.2971 2.22313 83.1688
lradius 44.993
lwrist 5.41851
lhand -15.7578 23.9751
lfingers 7.12502
lthumb 10.4338 53.6962
rfemur -30.0385 -2.00498 21.7043
rtibia 30.2265
rfoot -5.72698 1.21677
rtoes 4.15574
lfemur 9.14148 1.53837 -23.1623
ltibia 21.725
lfoot -7.08881 -15.7015
ltoes 4.94604
110
root 8.76886 17.2471 -19.7528 1.53205 -0.0367875 1.51051
lowerback 4.47765 -1.71412 -2.60177
upperback 1.97583 -2.36844 2.8565
thorax -0.247487 -1.21578 4.51285
lowerneck -16.4933 0.164767 -7.22753
upperneck 32.4475 2.65065 -0.271167
head 13.7014 0.20788 1.57489
rclavicle 3.42904e-014 -9.54166e-015
rhumerus -33.8324 -13.4148 -75.3274
rradius 25.8049
rwrist -5.23845
rhand -19.0224 10.5682
rfingers 7.12502
rthumb 7.28355 -19.2864
lclavicle 3.42904e-014 -9.54166e-015
lhumerus -31.4739 2.36216 83.303
lradius 44.2553
lwrist 5.10638
lhand -14.15 26.036
lfingers 7.12502
lthumb 11.9845 55.6729
rfemur -29.417 -2.30504 22.3182
rtibia 30.5206
rfoot -5.83674 1.72252
rtoes 5.90952
lfemur 8.85323 0.925905 -22.507
ltibia 23.4854
lfoot -5.65345 -15.7331
ltoes 6.14268
111
root 8.75691 17.2605 -19.6041 1.34737 0.0788521 1.16809
lowerback 4.53983 -1.71993 -2.15488
upperback 2.02662 -2.35822 2.95661
thorax -0.245468 -1.20909 4.3648
lowerneck -16.5701 0.148291 -7.15729
upperneck 32.5164 2.63525 -0.328773
head 13.7512 0.199023 1.53911
rclavicle -4.03533e-014 -9.54166e-015
rhumerus -33.8384 -13.6587 -75.2818
rradius 25.7032
rwrist -5.22116
rhand -18.9731 10.9853
rfingers 7.12502
rthumb 7.33114 -18.8677
lclavicle -4.03533e-014 -9.54166e-015
lhumerus -31.6671 2.77179 83.4155
lradius 43.3366
lwrist 4.73143
lhand -14.2359 25.4008
lfingers 7.12502
lthumb 11.9016 55.0426
rfemur -28.8384 -2.35148 22.6968
rtibia 30.9217
rfoot -5.71644 2.21676
rtoes 8.33405
lfemur 8.44986 0.716861 -22.0283
ltibia 25.4071
lfoot -4.05445 -15.7944
ltoes 4.04627
112
root 8.74619 17.2737 -19.4546 1.14147 0.00650094 1.34566
lowerback 4.56022 -1.71557 -2.1751
upperback 2.05389 -2.35432 2.86586
thorax -0.232298 -1.20737 4.2819
lowerneck -16.2742 0.249788 -7.05349
upperneck 32.3292 2.73498 -0.391325
head 13.6024 0.256283 1.5072
rclavicle 2.06736e-014 1.90833e-014
rhumerus -33.9167 -13.6669 -75.3609
rradius 25.6952
rwrist -5.26873
rhand -19.0656 10.9621
rfingers 7.12502
rthumb 7.24179 -18.894
lclavicle 2.06736e-014 1.90833e-014
lhumerus -32.0277 3.22656 83.4407
lradius 42.4196
lwrist 4.54708
lhand -15.7445 23.1942
lfingers 7.12502
lthumb 10.4466 52.9147
rfemur -28.2645 -2.66899 22.5746
rtibia 31.3683
rfoot -5.88216 3.00065
rtoes 10.5898
lfemur 7.85996 0.687786 -22.1129
ltibia 27.5315
lfoot -1.65957 -15.7911
ltoes 5.41963
113
root 8.7283 17.2938 -19.3087 0.993756 -0.00187957 1.55494
lowerback 4.62662 -1.68098 -2.28683
upperback 2.04436 -2.31396 2.76783
thorax -0.282408 -1.18622 4.24428
lowerneck -16.124 0.284278 -6.96398
upperneck 32.2592 2.74625 -0.40921
head 13.5394 0.274029 1.48427
rclavicle 8.84592e-015 -1.74931e-014
rhumerus -34.016 -13.9587 -75.2996
rradius 25.5973
rwrist -5.06993
rhand -19.1283 11.2381
rfingers 7.12502
rthumb 7.18128 -18.6201
lclavicle 8.84592e-015 -1.74931e-014
lhumerus -32.3406 3.3609 83.4901
lradius 41.5235
lwrist 4.59027
lhand -16.5888 22.728
lfingers 7.12502
lthumb 9.63211 52.4878
rfemur -27.7275 -2.72675 22.3528
rtibia 31.8268
rfoot -6.46257 3.34889
rtoes 12.0895
lfemur 6.96997 0.724031 -22.0921
ltibia 29.8304
lfoot 1.94975 -15.6559
ltoes 11.94
114
root 8.71129 17.3159 -19.1613 0.92842 0.0398722 1.37378
lowerback 4.46774 -1.6264 -1.99561
upperback 2.1488 -2.22888 2.80792
thorax -0.104061 -1.14643 4.10979
lowerneck -16.3111 0.223866 -6.91468
upperneck 32.2869 2.68576 -0.474011
head 13.5972 0.242807 1.44293
rclavicle 2.46493e-014 4.77083e-015
rhumerus -33.9822 -14.3404 -75.1645
rradius 25.6008
rwrist -4.84958
rhand -18.956 10.9654
rfingers 7.12502
rthumb 7.34763 -18.887
lclavicle 2.46493e-014 4.77083e-015
lhumerus -32.3365 3.49955 83.6416
lradius 40.4708
lwrist 4.47083
lhand -16.5855 23.3386
lfingers 7.12502
lthumb 9.63525 53.0983
rfemur -27.2256 -2.61457 22.5274
rtibia 32.2069
rfoot -7.11874 3.3174
rtoes 12.7764
lfemur 5.80531 0.985155 -21.5318
ltibia 32.3331
lfoot 5.74459 -15.4248
ltoes 16.3899
115
root 8.69935 17.3327 -19.009 0.8268 0.143168 1.28386
lowerback 4.25032 -1.64134 -1.85006
upperback 2.23524 -2.24293 2.91586
thorax 0.106091 -1.15776 4.13059
lowerneck -16.3406 0.19874 -7.04037
upperneck 32.2454 2.71747 -0.550019
head 13.5869 0.232429 1.43932
rclavicle 1.2921e-014 9.54166e-015
rhumerus -33.959 -14.1229 -75.1137
rradius 25.8171
rwrist -5.02326
rhand -18.6874 9.85571
rfingers 7.12502
rthumb 7.60686 -19.9875
lclavicle 1.2921e-014 9.54166e-015
lhumerus -32.456 4.12384 83.8454
lradius 39.3699
lwrist 3.98409
lhand -16.4536 23.7944
lfingers 7.12502
lthumb 9.76253 53.5482
rfemur -26.665 -3.01445 22.6816
rtibia 32.4532
rfoot -7.7276 3.58834
rtoes 13.1108
lfemur 4.51022 1.19924 -21.1055
ltibia 35.0203
lfoot 9.26793 -14.9549
ltoes 18.4585
116
root 8.6833 17.3354 -18.8603 0.665594 0.332211 1.37735
lowerback 4.31433 -1.67807 -2.07148
upperback 2.17001 -2.29913 3.06769
thorax 0.0239478 -1.1867 4.41939
lowerneck -16.2183 0.189658 -7.42722
upperneck 32.3032 2.77102 -0.41229
head 13.5778 0.226719 1.56817
rclavicle -1.20265e-014 -7.95139e-015
rhumerus -34.1547 -13.5255 -75.0461
rradius 26.0857
rwrist -5.47399
rhand -18.7307 9.26547
rfingers 7.12502
rthumb 7.56509 -20.5792
lclavicle -1.20265e-014 -7.95139e-015
lhumerus -32.8881 4.84801 84.0881
lradius 38.37
lwrist 3.48103
lhand -16.1771 23.6525
lfingers 7.12502
lthumb 10.0293 53.3935
rfemur -25.9921 -3.48789 22.6693
rtibia 32.5622
rfoot -8.18987 3.89559
rtoes 13.0186
lfemur 3.08734 1.27798 -20.8525
ltibia 37.805
lfoot 12.8477 -14.2676
ltoes 19.7888
117
root 8.66253 17.3382 -18.7179 0.476546 0.530553 1.28088
lowerback 4.44485 -1.65735 -2.03148
upperback 2.15221 -2.26996 3.13646
thorax -0.0685553 -1.17024 4.4724
lowerneck -16.1921 0.143811 -7.62941
upperneck 32.4467 2.67295 -0.121273
head 13.6285 0.194841 1.70455
rclavicle 3.95581e-014 -5.56597e-015
rhumerus -34.389 -13.314 -75.0455
rradius 26.2472
rwrist -5.69679
rhand -19.0495 9.11243
rfingers 7.12502
rthumb 7.25737 -20.7431
lclavicle 3.95581e-014 -5.56597e-015
lhumerus -33.1435 5.26456 84.1514
lradius 37.292
lwrist 3.21887
lhand -15.2225 22.7532
lfingers 7.12502
lthumb 10.9501 52.4476
rfemur -25.1666 -3.58769 22.8124
rtibia 32.5003
rfoot -8.41383 4.07002
rtoes 13.5618
lfemur 1.52243 1.39425 -20.3318
ltibia 40.6411
lfoot 16.2918 -14.1496
ltoes 19.2971
